<?xml version="1.0" encoding="utf-8"?>
<!-- Generator: Adobe Illustrator 19.2.1, SVG Export Plug-In . SVG Version: 6.00 Build 0)  -->
<svg version="1.1" id="Layer_1" xmlns="http://www.w3.org/2000/svg" xmlns:xlink="http://www.w3.org/1999/xlink" x="0px" y="0px"
	 viewBox="0 0 892 166" style="enable-background:new 0 0 892 166;" xml:space="preserve">
<style type="text/css">
	.st0{fill:#FFFFFF;}
</style>
<path class="st0" d="M9.8,9.6H29l29.3,128.3h0.4L88.1,9.6h19.3L69.6,159H46.2L9.8,9.6z"/>
<path class="st0" d="M121.4,9.6h18.4V159h-18.4V9.6z"/>
<path class="st0" d="M250.3,9.6h18.4l22.8,122.2h0.4L313.1,9.6h22.2l21.1,122.2h0.4L379.7,9.6h18.4L367.4,159H345L324.4,38H324
	l-21.6,121H280L250.3,9.6z"/>
<path class="st0" d="M423.8,107.3v4.8c0,16.8,1,34.8,28.1,34.8c14.6,0,26-10.5,26-26.4c0-42.3-70.5-17.8-70.5-72.6
	c0-13.8,5.9-41.2,43.7-41.2c28.5,0,41.4,14.2,41.9,41.7v4.8h-18.4v-4.8c0-15.7-5.7-26.6-23.2-26.6c-15.5,0-24.7,8.4-24.7,24.3
	c0,42.1,70.5,17,70.5,71.6c0,34.5-25.3,44.4-46.5,44.4c-34.9,0-45.2-18-45.2-49.8v-4.8h18.3L423.8,107.3L423.8,107.3z"/>
<path class="st0" d="M788.4,107.7c-1.7,28.3-12.8,54.2-45.4,54.2c-42.5,0-48.1-40-48.1-77.7S701.8,6.5,743,6.5
	c30.6,0,43.3,17.2,44.2,46.5h-19.3c-0.4-17-5.9-31.4-24.9-31.4c-25.5,0-28.9,28-28.9,62.6c0,34.5,3.3,62.6,28.9,62.6
	c22.4,0,25.5-20.9,26.2-39.1C769.2,107.7,788.4,107.7,788.4,107.7z"/>
<g>
	<polygon class="st0" points="161.5,71.1 161.5,159 241.2,159 241.2,142.7 179.9,142.7 179.9,87.5 235.4,87.5 235.4,71.1 	"/>
	<polygon class="st0" points="179.9,25.9 238.7,25.9 238.7,9.6 161.5,9.6 161.5,53.1 179.9,53.1 	"/>
</g>
<g>
	<path class="st0" d="M511.3,71.1V159h18.4V86.2h22.8c25.3,0,43.1-11.5,43.1-39.3c0-42.9-33.3-37.3-46.3-37.3h-38.1v43.5h18.4V24.6
		h20.7c18.2,0,26,5.1,26,21.4c0,19.9-11.3,25.1-24.7,25.1H511.3z"/>
</g>
<g>
	<polygon class="st0" points="804.6,71.1 804.6,159 884.3,159 884.3,142.7 823,142.7 823,87.5 878.4,87.5 878.4,71.1 	"/>
	<polygon class="st0" points="823,25.9 881.8,25.9 881.8,9.6 804.6,9.6 804.6,53.1 823,53.1 	"/>
</g>
<g>
	<polygon class="st0" points="584.4,159 603.7,159 639.3,30.7 639.7,30.7 673.2,159 692.4,159 652.2,9.6 627.5,9.6 	"/>
</g>
</svg>
